<svg xmlns="http://www.w3.org/2000/svg" xmlns:xlink="http://www.w3.org/1999/xlink" width="16" height="16" version="1.1" viewBox="0 0 16 16"><title>Artboard 19</title><desc>Created with Sketch.</desc><g id="Product-Styles" fill="none" fill-rule="evenodd" stroke="none" stroke-width="1"><g id="Artboard-19" stroke="#4D4D4D" stroke-linejoin="round"><g id="Group-2" transform="translate(3.000000, 1.500000)"><path id="Stroke-17" d="M5.27777778,7.79166667 C5.27777778,7.95208333 5.15333333,8.08333333 5,8.08333333 C4.84666667,8.08333333 4.72222222,7.95208333 4.72222222,7.79166667 C4.72222222,7.63008333 4.84666667,7.5 5,7.5 C5.15333333,7.5 5.27777778,7.63008333 5.27777778,7.79166667 L5.27777778,7.79166667 Z"/><path id="Stroke-19" stroke-linecap="round" d="M5,8 L5,10.5"/><path id="Stroke-21" d="M9.5,5 L0.5,5 L0.5,13 L9.5,13 L9.5,5 Z"/><path id="Stroke-23" d="M2,3.05555556 C2,1.36777778 3.34290909,0 5,0 C6.65709091,0 8,1.36777778 8,3.05555556 L8,5 L2,5 L2,3.05555556 L2,3.05555556 Z"/></g></g></g></svg>