<svg xmlns="http://www.w3.org/2000/svg" xmlns:xlink="http://www.w3.org/1999/xlink" width="45" height="45" version="1.1" viewBox="0 0 45 45"><title>icon-why-mc</title><desc>Created with Sketch.</desc><g id="UI" fill="none" fill-rule="evenodd" stroke="none" stroke-width="1" opacity=".7"><g id="Migration-Toolkit-Home" transform="translate(-635.000000, -571.000000)"><g id="Content" transform="translate(487.000000, 183.000000)"><g id="Getting-Started" transform="translate(0.000000, 140.000000)"><g id="Why-MC?" transform="translate(0.000000, 224.000000)"><g id="icon-why-mc" transform="translate(148.000000, 24.000000)"><rect id="Rectangle-path" width="45" height="45" x="0" y="0"/><path id="Shape" stroke="#294661" stroke-linejoin="round" stroke-width="1.5" d="M36.5625,16.40625 L44.0625,21.5625 L44.0625,41.25 C44.0625,42.8025 42.8025,44.0625 41.25,44.0625 L3.75,44.0625 C2.1975,44.0625 0.9375,42.8025 0.9375,41.25 L0.9375,21.5625 L8.4375,16.40625"/><polyline id="Shape" stroke="#294661" stroke-linecap="round" stroke-linejoin="round" stroke-width="1.5" points="6.563 38.438 15.938 30.938 29.063 30.938 38.438 38.438"/><polyline id="Shape" stroke="#F90" stroke-width="1.5" points="36.563 26.563 36.563 .938 8.438 .938 8.438 26.563"/><path id="Shape" stroke="#294661" stroke-linecap="round" stroke-width="1.5" d="M44.0625,21.5625 L32.8125,29.0625"/><path id="Shape" stroke="#294661" stroke-linecap="round" stroke-width="1.5" d="M0.9375,21.5625 L12.1875,29.0625"/><polygon id="Shape" stroke="#FDD835" stroke-linejoin="round" stroke-width="1.5" points="25.869 16.355 29.928 12.973 25.193 12.973 22.498 7.563 19.804 12.973 15.047 12.973 19.127 16.355 17.098 22.443 22.498 18.735 27.898 22.443"/></g></g></g></g></g></g></svg>