<svg xmlns="http://www.w3.org/2000/svg" xmlns:xlink="http://www.w3.org/1999/xlink" width="575" height="300" version="1.1" viewBox="0 0 575 300"><title>pixel-pattern-left-bottom-dark copy 2</title><desc>Created with Sketch.</desc><g id="UI" fill="none" fill-rule="evenodd" stroke="none" stroke-width="1"><g id="Home" transform="translate(-865.000000, -2267.000000)"><rect width="1440" height="2996" x="0" y="0"/><g id="For-Developers-Pre-Footer" fill="#1A82E2" transform="translate(0.000000, 2179.000000)"><g id="pixel-pattern-left-bottom-dark-copy-2" transform="translate(1152.500000, 238.000000) scale(-1, 1) translate(-1152.500000, -238.000000) translate(865.000000, 88.000000)" style="mix-blend-mode:multiply"><rect id="Square" width="25" height="25" x="0" y="275" opacity=".12"/><rect id="Square" width="25" height="25" x="25" y="275" opacity=".04"/><rect id="Square" width="25" height="25" x="50" y="275" opacity=".08"/><rect id="Square" width="25" height="25" x="75" y="275" opacity=".04"/><rect id="Square" width="25" height="25" x="125" y="275" opacity=".08"/><rect id="Square" width="25" height="25" x="150" y="275" opacity=".04"/><rect id="Square" width="25" height="25" x="175" y="275" opacity=".12"/><rect id="Square" width="25" height="25" x="225" y="275" opacity=".08"/><rect id="Square" width="25" height="25" x="375" y="275" opacity=".04"/><rect id="Square" width="25" height="25" x="275" y="275" opacity=".12"/><rect id="Square" width="25" height="25" x="0" y="250" opacity=".04"/><rect id="Square" width="25" height="25" x="50" y="250" opacity=".04"/><rect id="Square" width="25" height="25" x="75" y="250" opacity=".12"/><rect id="Square" width="25" height="25" x="125" y="250" opacity=".04"/><rect id="Square" width="25" height="25" x="175" y="250" opacity=".08"/><rect id="Square" width="25" height="25" x="250" y="250" opacity=".08"/><rect id="Square" width="25" height="25" x="325" y="275" opacity=".12"/><rect id="Square" width="25" height="25" x="450" y="275" opacity=".08"/><rect id="Square" width="25" height="25" x="500" y="275" opacity=".08"/><rect id="Square" width="25" height="25" x="550" y="275" opacity=".04"/><rect id="Square" width="25" height="25" x="300" y="225" opacity=".12"/><rect id="Square" width="25" height="25" x="375" y="225" opacity=".12"/><rect id="Square" width="25" height="25" x="425" y="225" opacity=".04"/><rect id="Square" width="25" height="25" x="0" y="225" opacity=".12"/><rect id="Square" width="25" height="25" x="25" y="225" opacity=".04"/><rect id="Square" width="25" height="25" x="50" y="200" opacity=".08"/><rect id="Square" width="25" height="25" x="100" y="225" opacity=".08"/><rect id="Square" width="25" height="25" x="150" y="225" opacity=".04"/><rect id="Square" width="25" height="25" x="225" y="225" opacity=".04"/><rect id="Square" width="25" height="25" x="0" y="200" opacity=".04"/><rect id="Square" width="25" height="25" x="50" y="150" opacity=".12"/><rect id="Square" width="25" height="25" x="75" y="200" opacity=".04"/><rect id="Square" width="25" height="25" x="125" y="200" opacity=".04"/><rect id="Square" width="25" height="25" x="175" y="200" opacity=".08"/><rect id="Square" width="25" height="25" x="325" y="200" opacity=".08"/><rect id="Square" width="25" height="25" x="176" y="150" opacity=".04"/><rect id="Square" width="25" height="25" x="25" y="175" opacity=".08"/><rect id="Square" width="25" height="25" x="0" y="100" opacity=".04"/><rect id="Square" width="25" height="25" x="50" y="100" opacity=".08"/><rect id="Square" width="25" height="25" x="50" y="50" opacity=".08"/><rect id="Square" width="25" height="25" x="0" y="50" opacity=".12"/><rect id="Square" width="25" height="25" x="0" y="0" opacity=".08"/><rect id="Square" width="25" height="25" x="126" y="150" opacity=".08"/><rect id="Square" width="25" height="25" x="226" y="150" opacity=".12"/><rect id="Square" width="25" height="25" x="0" y="150" opacity=".12"/><rect id="Square" width="25" height="25" x="75" y="125" opacity=".04"/><rect id="Square" width="25" height="25" x="125" y="75" opacity=".04"/></g></g></g></g></svg>