<svg xmlns="http://www.w3.org/2000/svg" xmlns:xlink="http://www.w3.org/1999/xlink" width="60" height="60" version="1.1" viewBox="0 0 60 60"><title>Group 24</title><desc>Created with Sketch.</desc><g id="UI" fill="none" fill-rule="evenodd" stroke="none" stroke-width="1"><g id="Release-Notes" transform="translate(-1084.000000, -479.000000)"><g id="Group-12" transform="translate(1049.000000, 479.000000)"><g id="Group-6-Copy-3"><g id="Group-24" transform="translate(35.000000, 0.000000)"><g id="Group-5" fill="#F1ECFF"><circle id="Oval-2" cx="30" cy="30" r="30"/></g><g id="Group-11" stroke="#7C4DFF" stroke-linecap="round" stroke-linejoin="round" transform="translate(15.000000, 15.000000)"><g id="Group-222" stroke-width="1.5"><polyline id="Stroke-6175" points="25.579 30 27.027 22.641 19.555 23.311"/><polyline id="Stroke-6176" points="4.206 .176 2.758 7.535 10.23 6.864"/><path id="Stroke-6177" d="M26.9619,22.5996 C24.4224,26.5131 20.0124,29.1036 14.9994,29.1036 C7.1289,29.1036 0.7494,22.7226 0.7494,14.8536 C0.7494,14.1066 0.8064,13.3716 0.9189,12.6561"/><path id="Stroke-6178" d="M2.76705,7.54095 C5.25555,3.38445 9.80205,0.60345 14.99955,0.60345 C22.87005,0.60345 29.24955,6.98145 29.24955,14.85345 C29.24955,16.10445 29.08905,17.32095 28.78605,18.47445"/></g><g id="Group-10" stroke-width="1.456" transform="translate(11.000000, 8.000000)"><path id="Stroke-6804" d="M1.27024568,9.70709618 C1.27024568,11.2031927 2.49208371,12.4154534 4,12.4154534 C5.50791629,12.4154534 6.72975432,11.2031927 6.72975432,9.70709618 C6.72975432,8.212083 5.50791629,6.99873897 4,6.99873897 C2.49208371,6.99873897 1.27024568,5.78647828 1.27024568,4.29038175 C1.27024568,2.79536857 2.49208371,1.58202453 4,1.58202453 C5.50791629,1.58202453 6.72975432,2.79536857 6.72975432,4.29038175"/><path id="Stroke-6805" d="M3.81801638,0.137567351 L3.81801638,13.8599106"/></g></g></g></g></g></g></g></svg>